<svg width="32" height="32" viewBox="0 0 32 32" fill="none" xmlns="http://www.w3.org/2000/svg">
<path d="M17.906 7.24008V9.02675C14.4127 9.30675 12.426 11.5467 12.426 15.2401V21.3334H7.23935C4.18602 21.3334 2.66602 19.8134 2.66602 16.7601V7.24008C2.66602 4.18675 4.18602 2.66675 7.23935 2.66675H13.3327C16.386 2.66675 17.906 4.18675 17.906 7.24008Z" fill="white"/>
<path d="M24.7604 10.6667H18.6671C15.6138 10.6667 14.0938 12.1867 14.0938 15.2401V24.7601C14.0938 27.8134 15.6138 29.3334 18.6671 29.3334H24.7604C27.8138 29.3334 29.3338 27.8134 29.3338 24.7601V15.2401C29.3338 12.1867 27.8138 10.6667 24.7604 10.6667ZM24.1737 21.0001H23.0004V22.1734C23.0004 22.7201 22.5471 23.1734 22.0004 23.1734C21.4538 23.1734 21.0004 22.7201 21.0004 22.1734V21.0001H19.8271C19.2804 21.0001 18.8271 20.5467 18.8271 20.0001C18.8271 19.4534 19.2804 19.0001 19.8271 19.0001H21.0004V17.8267C21.0004 17.2801 21.4538 16.8267 22.0004 16.8267C22.5471 16.8267 23.0004 17.2801 23.0004 17.8267V19.0001H24.1737C24.7204 19.0001 25.1737 19.4534 25.1737 20.0001C25.1737 20.5467 24.7204 21.0001 24.1737 21.0001Z" fill="white"/>
</svg>
