<svg width="32" height="32" viewBox="0 0 32 32" fill="none" xmlns="http://www.w3.org/2000/svg">
<path fill-rule="evenodd" clip-rule="evenodd" d="M22.667 22.6667C21.2197 22.6667 20.0003 23.8142 20.0003 25.2858C20.0003 26.7573 21.2197 27.9048 22.667 27.9048C24.1143 27.9048 25.3337 26.7573 25.3337 25.2858C25.3337 23.8142 24.1143 22.6667 22.667 22.6667Z" fill="white"/>
<path fill-rule="evenodd" clip-rule="evenodd" d="M9.33366 22.6667C7.88637 22.6667 6.66699 23.8142 6.66699 25.2858C6.66699 26.7573 7.88637 27.9048 9.33366 27.9048C10.781 27.9048 12.0003 26.7573 12.0003 25.2858C12.0003 23.8142 10.781 22.6667 9.33366 22.6667Z" fill="white"/>
<path fill-rule="evenodd" clip-rule="evenodd" d="M6.40032 5.33338L18.7125 5.33337C19.5933 5.33337 20.4503 5.63941 21.128 6.20415L28.0158 11.944C28.8459 12.6358 29.3337 13.6555 29.3337 14.7399V22C29.3337 23.1494 28.8023 24.1575 27.9807 24.8243C27.7422 22.036 25.3613 20 22.667 20C19.8261 20 17.3337 22.2635 17.3337 25.2858C17.3337 25.4141 17.3382 25.5412 17.347 25.6667H14.6537C14.6625 25.5412 14.667 25.4141 14.667 25.2858C14.667 22.2635 12.1746 20 9.33366 20C6.6393 20 4.25841 22.036 4.01993 24.8243C3.19831 24.1575 2.66699 23.1494 2.66699 22V9.00005C2.66699 6.93985 4.37412 5.33338 6.40032 5.33338ZM12.0003 10.6667C12.0003 9.93033 11.4034 9.33337 10.667 9.33337C9.93061 9.33337 9.33366 9.93033 9.33366 10.6667V12H8.00033C7.26395 12 6.66699 12.597 6.66699 13.3334C6.66699 14.0698 7.26395 14.6667 8.00033 14.6667H9.33366V16C9.33366 16.7364 9.93061 17.3334 10.667 17.3334C11.4034 17.3334 12.0003 16.7364 12.0003 16V14.6667H13.3337C14.07 14.6667 14.667 14.0698 14.667 13.3334C14.667 12.597 14.07 12 13.3337 12H12.0003V10.6667Z" fill="white"/>
</svg>
