<svg width="30" height="30" viewBox="0 0 30 30" fill="none" xmlns="http://www.w3.org/2000/svg">
<path fill-rule="evenodd" clip-rule="evenodd" d="M23.5883 23.7138C24.3064 22.6185 24.5741 22.0586 25.1218 20.8294C21.0811 19.2958 20.436 13.539 24.4281 11.3361C23.211 9.80252 21.4949 8.91406 19.8762 8.91406C18.7078 8.91406 17.9045 9.21835 17.1864 9.49828C16.5779 9.72952 16.0302 9.93641 15.3486 9.93641C14.6184 9.93641 13.9733 9.70518 13.2917 9.46177C12.5493 9.19401 11.7704 8.91406 10.7967 8.91406C8.98323 8.91406 7.04807 10.0216 5.81881 11.9203C4.09055 14.5979 4.39482 19.6123 7.18195 23.8964C8.17996 25.4299 9.51875 27.146 11.2592 27.1704C11.9894 27.1825 12.4641 26.9635 12.9874 26.7322C13.5838 26.4645 14.2289 26.1723 15.3608 26.1723C16.4927 26.1602 17.1255 26.4645 17.7219 26.7322C18.2331 26.9635 18.6956 27.1825 19.4137 27.1704C21.1784 27.146 22.5903 25.2474 23.5883 23.7138Z" fill="black"/>
<path fill-rule="evenodd" clip-rule="evenodd" d="M19.6205 2.8291C19.8153 4.1679 19.2676 5.49454 18.5495 6.41952C17.7827 7.41753 16.4439 8.19645 15.1538 8.14776C14.9226 6.85765 15.5189 5.53102 16.2492 4.64255C17.0646 3.66888 18.4399 2.9143 19.6205 2.8291Z" fill="black"/>
</svg>
