<svg width="32" height="32" viewBox="0 0 32 32" fill="none" xmlns="http://www.w3.org/2000/svg">
<path d="M25.3333 20C22.3867 20 20 22.3867 20 25.3333C20 26.3333 20.28 27.28 20.7733 28.08C21.6933 29.6267 23.3867 30.6667 25.3333 30.6667C27.28 30.6667 28.9733 29.6267 29.8933 28.08C30.3867 27.28 30.6667 26.3333 30.6667 25.3333C30.6667 22.3867 28.28 20 25.3333 20ZM28.0933 24.76L25.2533 27.3867C25.0667 27.56 24.8133 27.6533 24.5733 27.6533C24.32 27.6533 24.0667 27.56 23.8667 27.36L22.5467 26.04C22.16 25.6533 22.16 25.0133 22.5467 24.6267C22.9333 24.24 23.5733 24.24 23.96 24.6267L24.6 25.2667L26.7333 23.2933C27.1333 22.92 27.7733 22.9467 28.1467 23.3467C28.52 23.7467 28.4933 24.3733 28.0933 24.76Z" fill="white"/>
<path d="M29.3337 10.0665V10.6665C29.3337 11.3999 28.7337 11.9999 28.0003 11.9999H4.00033C3.26699 11.9999 2.66699 11.3999 2.66699 10.6665V10.0532C2.66699 6.99987 5.13366 4.5332 8.18699 4.5332H23.8003C26.8537 4.5332 29.3337 7.0132 29.3337 10.0665Z" fill="white"/>
<path d="M2.66699 15.3332V21.9466C2.66699 24.9999 5.13366 27.4666 8.18699 27.4666H16.5337C17.307 27.4666 17.9737 26.8132 17.907 26.0399C17.7203 23.9999 18.3737 21.7866 20.187 20.0266C20.9337 19.2932 21.8537 18.7332 22.8537 18.4132C24.5203 17.8799 26.1337 17.9466 27.5603 18.4266C28.427 18.7199 29.3337 18.0932 29.3337 17.1732V15.3199C29.3337 14.5866 28.7337 13.9866 28.0003 13.9866H4.00033C3.26699 13.9999 2.66699 14.5999 2.66699 15.3332ZM10.667 22.9999H8.00033C7.45366 22.9999 7.00033 22.5466 7.00033 21.9999C7.00033 21.4532 7.45366 20.9999 8.00033 20.9999H10.667C11.2137 20.9999 11.667 21.4532 11.667 21.9999C11.667 22.5466 11.2137 22.9999 10.667 22.9999Z" fill="white"/>
</svg>
