<svg width="32" height="32" viewBox="0 0 32 32" fill="none" xmlns="http://www.w3.org/2000/svg">
<path d="M9.65366 2.66675H7.12033C4.20033 2.66675 2.66699 4.20008 2.66699 7.10675V9.64008C2.66699 12.5467 4.20033 14.0801 7.10699 14.0801H9.64033C12.547 14.0801 14.0803 12.5467 14.0803 9.64008V7.10675C14.0937 4.20008 12.5603 2.66675 9.65366 2.66675Z" fill="white"/>
<path d="M24.8923 2.66675H22.3589C19.4523 2.66675 17.9189 4.20008 17.9189 7.10675V9.64008C17.9189 12.5467 19.4523 14.0801 22.3589 14.0801H24.8923C27.7989 14.0801 29.3323 12.5467 29.3323 9.64008V7.10675C29.3323 4.20008 27.7989 2.66675 24.8923 2.66675Z" fill="white"/>
<path d="M24.8923 17.9065H22.3589C19.4523 17.9065 17.9189 19.4398 17.9189 22.3465V24.8798C17.9189 27.7865 19.4523 29.3198 22.3589 29.3198H24.8923C27.7989 29.3198 29.3323 27.7865 29.3323 24.8798V22.3465C29.3323 19.4398 27.7989 17.9065 24.8923 17.9065Z" fill="white"/>
<path d="M9.65366 17.9065H7.12033C4.20033 17.9065 2.66699 19.4398 2.66699 22.3465V24.8798C2.66699 27.7998 4.20033 29.3332 7.10699 29.3332H9.64033C12.547 29.3332 14.0803 27.7998 14.0803 24.8932V22.3598C14.0937 19.4398 12.5603 17.9065 9.65366 17.9065Z" fill="white"/>
</svg>
