<svg width="32" height="33" viewBox="0 0 32 33" fill="none" xmlns="http://www.w3.org/2000/svg">
<path fill-rule="evenodd" clip-rule="evenodd" d="M5.33325 21.4092C5.33325 18.4821 7.04816 15.9556 9.52807 14.7795C10.9826 16.7773 13.3396 18.0759 15.9999 18.0759C18.6602 18.0759 21.0173 16.7773 22.4718 14.7795C24.9517 15.9556 26.6666 18.4821 26.6666 21.4092V27.4092C26.6666 28.8819 25.4727 30.0759 23.9999 30.0759H7.99992C6.52716 30.0759 5.33325 28.8819 5.33325 27.4092V21.4092ZM17.3333 20.4672H14.6666V22.8006H12.3333V25.4672H14.6666V27.8006H17.3333V25.4672H19.6666V22.8006H17.3333V20.4672Z" fill="white"/>
<path d="M15.9999 15.4092C18.9454 15.4092 21.3333 13.0214 21.3333 10.0758H10.6666C10.6666 13.0214 13.0544 15.4092 15.9999 15.4092Z" fill="white"/>
<path d="M10.6666 7.40918V4.07585C10.6666 3.70766 10.9651 3.40918 11.3333 3.40918H20.6666C21.0348 3.40918 21.3333 3.70766 21.3333 4.07585V7.40918H10.6666Z" fill="white"/>
</svg>
