<svg width="32" height="32" viewBox="0 0 32 32" fill="none" xmlns="http://www.w3.org/2000/svg">
<path d="M11.3625 3.91976H11.1781C10.8507 3.18071 10.1224 2.6665 9.27649 2.6665H8.54024C7.69435 2.6665 6.96606 3.18071 6.63867 3.91976H6.45418C5.09878 3.91976 4 5.04197 4 6.42629V7.67955H6.45418C7.13189 7.67955 7.68127 8.24065 7.68127 8.93281C7.68127 9.62496 7.13189 10.1861 6.45418 10.1861H4V12.6926H6.45418C7.13189 12.6926 7.68127 13.2537 7.68127 13.9459C7.68127 14.638 7.13189 15.1991 6.45418 15.1991H4V16.4524C4 17.8367 5.09878 18.9589 6.45418 18.9589H6.48656C6.61086 19.6719 7.08237 20.2621 7.71615 20.5408C7.69334 20.6363 7.68124 20.7361 7.68124 20.8388V22.7187C7.68124 26.1794 10.4282 28.985 13.8167 28.985C17.2052 28.985 19.9522 26.1794 19.9522 22.7187L19.9522 15.1991C19.9522 13.8148 21.051 12.6926 22.4064 12.6926C23.7618 12.6926 24.8605 13.8148 24.8605 15.1991V15.8258C24.8605 16.518 25.4099 17.0791 26.0876 17.0791C26.7653 17.0791 27.3147 16.518 27.3147 15.8258V15.1991C27.3147 12.4305 25.1172 10.1861 22.4064 10.1861C19.6956 10.1861 17.498 12.4305 17.498 15.1991L17.498 22.7187C17.498 24.7951 15.8498 26.4784 13.8167 26.4784C11.7836 26.4784 10.1354 24.7951 10.1354 22.7187V20.8388C10.1354 20.7361 10.1233 20.6363 10.1005 20.5408C10.7343 20.2622 11.2059 19.6719 11.3302 18.9589H11.3625C12.718 18.9589 13.8167 17.8367 13.8167 16.4524V6.42629C13.8167 5.04197 12.718 3.91976 11.3625 3.91976Z" fill="white"/>
<path d="M26.6222 19.9277L28.866 23.9946C29.1626 24.5256 29.3333 25.1485 29.3333 25.8146C29.3333 27.7578 27.8802 29.3332 26.0876 29.3332C24.2951 29.3332 22.842 27.7578 22.842 25.8146C22.842 25.1485 23.0127 24.5256 23.3093 23.9946L25.5531 19.9277C25.7878 19.5023 26.3875 19.5023 26.6222 19.9277Z" fill="white"/>
</svg>
