<svg width="32" height="32" viewBox="0 0 32 32" fill="none" xmlns="http://www.w3.org/2000/svg">
<path d="M21.587 2.66675H10.4137C5.56033 2.66675 2.66699 5.56008 2.66699 10.4134V21.5734C2.66699 26.4401 5.56033 29.3334 10.4137 29.3334H21.5737C26.427 29.3334 29.3203 26.4401 29.3203 21.5868V10.4134C29.3337 5.56008 26.4403 2.66675 21.587 2.66675ZM14.6003 23.3467C14.2137 23.7334 13.4803 24.1067 12.947 24.1867L9.66699 24.6534C9.54699 24.6667 9.42699 24.6801 9.30699 24.6801C8.76033 24.6801 8.25366 24.4934 7.89366 24.1334C7.45366 23.6934 7.26699 23.0534 7.37366 22.3467L7.84033 19.0667C7.92033 18.5201 8.28033 17.8001 8.68033 17.4134L14.627 11.4667C14.7337 11.7467 14.8403 12.0267 14.987 12.3467C15.1203 12.6267 15.267 12.9201 15.427 13.1867C15.5603 13.4134 15.707 13.6267 15.827 13.7867C15.9737 14.0134 16.147 14.2267 16.2537 14.3467C16.3203 14.4401 16.3737 14.5067 16.4003 14.5334C16.7337 14.9334 17.1203 15.3067 17.4537 15.5867C17.547 15.6801 17.6003 15.7334 17.627 15.7467C17.827 15.9067 18.027 16.0667 18.2003 16.1867C18.4137 16.3467 18.627 16.4934 18.8537 16.6134C19.1203 16.7734 19.4137 16.9201 19.707 17.0667C20.0137 17.2001 20.2937 17.3201 20.5737 17.4134L14.6003 23.3467ZM23.1603 14.7867L21.9337 16.0267C21.8537 16.1067 21.747 16.1467 21.6403 16.1467C21.6003 16.1467 21.547 16.1467 21.5203 16.1334C18.8137 15.3601 16.6537 13.2001 15.8803 10.4934C15.8403 10.3467 15.8803 10.1867 15.987 10.0934L17.227 8.85341C19.2537 6.82675 21.187 6.86675 23.1737 8.85341C24.187 9.86675 24.6803 10.8401 24.6803 11.8534C24.667 12.8134 24.1737 13.7734 23.1603 14.7867Z" fill="#1A434E"/>
</svg>
