<svg width="32" height="32" viewBox="0 0 32 32" fill="none" xmlns="http://www.w3.org/2000/svg">
<path fill-rule="evenodd" clip-rule="evenodd" d="M25.3332 2.6665V5.33317H27.9998V7.99984H25.3332V10.6665H22.6665V7.99984H19.9998V5.33317H22.6665V2.6665H25.3332Z" fill="white"/>
<path fill-rule="evenodd" clip-rule="evenodd" d="M26.77 26.7045L26.4462 27.001C23.1344 30.1602 17.892 30.1089 14.6414 26.8523L5.14126 17.3344C1.86639 14.0534 1.84153 8.7497 5.06811 5.43834L5.10108 5.40451L5.35147 5.18154C6.96666 3.59593 9.56003 3.606 11.1628 5.21176L13.2774 7.33317C14.8421 8.9008 14.8876 11.4132 13.4137 13.0357L18.9151 18.5417C20.5357 17.0517 23.0567 17.0933 24.6269 18.6665L26.7912 20.8376C28.4027 22.4521 28.4027 25.0687 26.7912 26.6833L26.77 26.7045Z" fill="white"/>
</svg>
