<svg width="32" height="32" viewBox="0 0 32 32" fill="none" xmlns="http://www.w3.org/2000/svg">
<path fill-rule="evenodd" clip-rule="evenodd" d="M25.3334 2.6665V5.33317H28.0001V7.99984H25.3334V10.6665H22.6667V7.99984H20.0001V5.33317H22.6667V2.6665H25.3334Z" fill="#1A434E"/>
<path fill-rule="evenodd" clip-rule="evenodd" d="M26.7703 26.7045L26.4465 27.001C23.1346 30.1602 17.8923 30.1089 14.6417 26.8523L5.1415 17.3344C1.86663 14.0534 1.84178 8.7497 5.06836 5.43834L5.10132 5.40451L5.35171 5.18154C6.96691 3.59593 9.56028 3.606 11.163 5.21176L13.2776 7.33317C14.8424 8.9008 14.8878 11.4132 13.414 13.0357L18.9154 18.5417C20.5359 17.0517 23.0569 17.0933 24.6272 18.6665L26.7914 20.8376C28.403 22.4521 28.403 25.0687 26.7914 26.6833L26.7703 26.7045Z" fill="#1A434E"/>
</svg>
