<svg width="32" height="33" viewBox="0 0 32 33" fill="none" xmlns="http://www.w3.org/2000/svg">
<path d="M21.5868 3.40918H10.4134C5.56008 3.40918 2.66675 6.30251 2.66675 11.1558V22.3158C2.66675 27.1825 5.56008 30.0758 10.4134 30.0758H21.5734C26.4268 30.0758 29.3201 27.1825 29.3201 22.3292V11.1558C29.3334 6.30251 26.4401 3.40918 21.5868 3.40918ZM8.62675 11.0358C9.01341 10.6492 9.65342 10.6492 10.0401 11.0358C10.9867 11.9825 12.5334 11.9825 13.4801 11.0358C13.8667 10.6492 14.5067 10.6492 14.8934 11.0358C15.2801 11.4225 15.2801 12.0625 14.8934 12.4492C14.0267 13.3158 12.8934 13.7425 11.7601 13.7425C10.6267 13.7425 9.49341 13.3158 8.62675 12.4492C8.24008 12.0492 8.24008 11.4225 8.62675 11.0358ZM16.0001 25.7825C12.4134 25.7825 9.49341 22.8625 9.49341 19.2758C9.49341 18.3425 10.2534 17.5692 11.1867 17.5692H20.7867C21.7201 17.5692 22.4801 18.3292 22.4801 19.2758C22.5068 22.8625 19.5867 25.7825 16.0001 25.7825ZM23.3734 12.4492C22.5068 13.3158 21.3734 13.7425 20.2401 13.7425C19.1067 13.7425 17.9734 13.3158 17.1067 12.4492C16.7201 12.0625 16.7201 11.4225 17.1067 11.0358C17.4934 10.6492 18.1334 10.6492 18.5201 11.0358C19.4667 11.9825 21.0134 11.9825 21.9601 11.0358C22.3467 10.6492 22.9867 10.6492 23.3734 11.0358C23.7601 11.4225 23.7601 12.0492 23.3734 12.4492Z" fill="white"/>
</svg>
