<svg width="42" height="42" viewBox="0 0 42 42" fill="none" xmlns="http://www.w3.org/2000/svg">
<path d="M36.1902 24.3425V24.325C34.6502 22.6975 32.4977 21.7 30.1002 21.7C25.4627 21.7 21.7002 25.4625 21.7002 30.1C21.7002 32.2525 22.5227 34.2125 23.8527 35.7C25.3927 37.415 27.6152 38.5 30.1002 38.5C34.7377 38.5 38.5002 34.7375 38.5002 30.1C38.5002 27.8775 37.6252 25.8475 36.1902 24.3425ZM33.2327 31.5175H31.4127V33.425C31.4127 34.1425 30.8177 34.7375 30.1002 34.7375C29.3827 34.7375 28.7877 34.1425 28.7877 33.425V31.5175H26.9677C26.2327 31.5175 25.6552 30.94 25.6552 30.205C25.6552 29.4875 26.2152 28.91 26.9502 28.8925H28.7877V27.1425C28.7877 27.1075 28.7877 27.0725 28.8052 27.0375C28.8402 26.3725 29.4177 25.83 30.1002 25.83C30.8002 25.83 31.3777 26.39 31.4127 27.09V28.8925H33.2327C33.9677 28.8925 34.5452 29.4875 34.5452 30.205C34.5452 30.94 33.9677 31.5175 33.2327 31.5175Z" fill="white"/>
<path d="M38.5 15.2775C38.5 17.36 38.1675 19.285 37.59 21.07C37.485 21.4375 37.0475 21.5425 36.7325 21.315C34.825 19.8975 32.4975 19.145 30.1 19.145C24.0275 19.145 19.075 24.0975 19.075 30.17C19.075 32.06 19.565 33.915 20.4925 35.56C20.7725 36.05 20.44 36.68 19.915 36.4875C15.6975 35.0525 7.175 29.82 4.41 21.07C3.8325 19.285 3.5 17.36 3.5 15.2775C3.5 9.86999 7.8575 5.495 13.23 5.495C16.3975 5.495 19.2325 7.03499 21 9.39749C22.7675 7.03499 25.6025 5.495 28.77 5.495C34.1425 5.495 38.5 9.86999 38.5 15.2775Z" fill="white"/>
</svg>
