<svg width="32" height="32" viewBox="0 0 32 32" fill="none" xmlns="http://www.w3.org/2000/svg">
<path d="M27.5734 18.5468V18.5334C26.4001 17.2934 24.7601 16.5334 22.9334 16.5334C19.4001 16.5334 16.5334 19.4001 16.5334 22.9334C16.5334 24.5734 17.1601 26.0668 18.1734 27.2001C19.3468 28.5068 21.0401 29.3334 22.9334 29.3334C26.4668 29.3334 29.3334 26.4668 29.3334 22.9334C29.3334 21.2401 28.6668 19.6934 27.5734 18.5468ZM25.3201 24.0134H23.9334V25.4668C23.9334 26.0134 23.4801 26.4668 22.9334 26.4668C22.3868 26.4668 21.9334 26.0134 21.9334 25.4668V24.0134H20.5468C19.9868 24.0134 19.5468 23.5734 19.5468 23.0134C19.5468 22.4668 19.9734 22.0268 20.5334 22.0134H21.9334V20.6801C21.9334 20.6534 21.9334 20.6268 21.9468 20.6001C21.9734 20.0934 22.4134 19.6801 22.9334 19.6801C23.4668 19.6801 23.9068 20.1068 23.9334 20.6401V22.0134H25.3201C25.8801 22.0134 26.3201 22.4668 26.3201 23.0134C26.3201 23.5734 25.8801 24.0134 25.3201 24.0134Z" fill="#1A434E"/>
<path d="M29.3334 11.6401C29.3334 13.2268 29.0801 14.6934 28.6401 16.0534C28.5601 16.3334 28.2267 16.4134 27.9867 16.2401C26.5334 15.1601 24.7601 14.5868 22.9334 14.5868C18.3067 14.5868 14.5334 18.3601 14.5334 22.9868C14.5334 24.4268 14.9067 25.8401 15.6134 27.0934C15.8267 27.4668 15.5734 27.9468 15.1734 27.8001C11.9601 26.7068 5.46675 22.7201 3.36008 16.0534C2.92008 14.6934 2.66675 13.2268 2.66675 11.6401C2.66675 7.5201 5.98675 4.18677 10.0801 4.18677C12.4934 4.18677 14.6534 5.3601 16.0001 7.1601C17.3467 5.3601 19.5068 4.18677 21.9201 4.18677C26.0134 4.18677 29.3334 7.5201 29.3334 11.6401Z" fill="#1A434E"/>
</svg>
