<svg width="32" height="32" viewBox="0 0 32 32" fill="none" xmlns="http://www.w3.org/2000/svg">
<path d="M29.3337 28.3333H28.0003V13.3066C28.0003 12.4799 27.627 11.7066 26.9737 11.1999L25.3337 9.91992L25.307 6.65325C25.307 5.91992 24.707 5.33325 23.9737 5.33325H19.427L17.6403 3.94659C16.6803 3.18659 15.3203 3.18659 14.3603 3.94659L5.02699 11.1999C4.37366 11.7066 4.00033 12.4799 4.00033 13.2933L3.93366 28.3333H2.66699C2.12033 28.3333 1.66699 28.7866 1.66699 29.3333C1.66699 29.8799 2.12033 30.3333 2.66699 30.3333H29.3337C29.8803 30.3333 30.3337 29.8799 30.3337 29.3333C30.3337 28.7866 29.8803 28.3333 29.3337 28.3333ZM8.66699 16.9999V14.9999C8.66699 14.2666 9.26699 13.6666 10.0003 13.6666H12.667C13.4003 13.6666 14.0003 14.2666 14.0003 14.9999V16.9999C14.0003 17.7333 13.4003 18.3333 12.667 18.3333H10.0003C9.26699 18.3333 8.66699 17.7333 8.66699 16.9999ZM19.3337 28.3333H12.667V24.6666C12.667 23.5599 13.5603 22.6666 14.667 22.6666H17.3337C18.4403 22.6666 19.3337 23.5599 19.3337 24.6666V28.3333ZM23.3337 16.9999C23.3337 17.7333 22.7337 18.3333 22.0003 18.3333H19.3337C18.6003 18.3333 18.0003 17.7333 18.0003 16.9999V14.9999C18.0003 14.2666 18.6003 13.6666 19.3337 13.6666H22.0003C22.7337 13.6666 23.3337 14.2666 23.3337 14.9999V16.9999Z" fill="white"/>
</svg>
