<svg width="32" height="32" viewBox="0 0 32 32" fill="none" xmlns="http://www.w3.org/2000/svg">
<path d="M16 20.0001C20.9706 20.0001 25 16.1199 25 11.3334C25 6.54695 20.9706 2.66675 16 2.66675C11.0294 2.66675 7 6.54695 7 11.3334C7 16.1199 11.0294 20.0001 16 20.0001Z" fill="white"/>
<path d="M21.0533 20.8135C21.4933 20.5868 22 20.9202 22 21.4135V27.8802C22 29.0802 21.16 29.6668 20.12 29.1735L16.5467 27.4802C16.24 27.3468 15.76 27.3468 15.4533 27.4802L11.88 29.1735C10.84 29.6535 10 29.0668 10 27.8668L10.0267 21.4135C10.0267 20.9202 10.5467 20.6002 10.9733 20.8135C12.48 21.5735 14.1867 22.0002 16 22.0002C17.8133 22.0002 19.5333 21.5735 21.0533 20.8135Z" fill="white"/>
</svg>
