<svg width="32" height="32" viewBox="0 0 32 32" fill="none" xmlns="http://www.w3.org/2000/svg">
<path d="M27.8668 13.1336L28.6535 26.3202C28.6802 26.6802 28.5068 26.9202 28.4135 27.0269C28.3068 27.1469 28.0802 27.3336 27.7068 27.3336H24.0668L26.9468 13.1336H27.8668ZM29.3335 8.00024L29.3202 8.02691C29.3468 8.34691 29.3202 8.68024 29.2402 9.01358L19.4135 27.0536C19.0935 28.4002 17.8935 29.3336 16.5068 29.3336H27.7068C29.4268 29.3336 30.7868 27.8802 30.6535 26.1602L29.3335 8.00024Z" fill="#1A434E"/>
<path d="M15.2667 2.98849C15.4 2.45515 15.0667 1.90849 14.5333 1.77515C14 1.65515 13.4533 1.97515 13.32 2.50849L12.6533 5.26849H14.7067L15.2667 2.98849Z" fill="#1A434E"/>
<path d="M24.0668 2.94479C24.1868 2.39812 23.8402 1.87812 23.2935 1.75812C22.7602 1.63812 22.2268 1.98479 22.1068 2.53145L21.5068 5.29145H23.5602L24.0668 2.94479Z" fill="#1A434E"/>
<path d="M29.0937 7.10968C28.6537 6.04301 27.6137 5.28301 26.3337 5.28301H23.5603L22.8137 8.73635C22.707 9.20301 22.2937 9.52301 21.8403 9.52301C21.7737 9.52301 21.6937 9.52301 21.627 9.49635C21.0937 9.37635 20.747 8.84301 20.8537 8.30968L21.507 5.26968H14.707L13.867 8.73635C13.7603 9.18968 13.347 9.49635 12.8937 9.49635C12.8137 9.49635 12.7337 9.48301 12.6537 9.46968C12.1203 9.33635 11.787 8.80301 11.9203 8.25635L12.6403 5.25635H9.93366C8.62699 5.25635 7.46699 6.10968 7.08032 7.36301L1.46699 25.4297C0.880324 27.363 2.30699 29.3363 4.32032 29.3363H21.8403C23.227 29.3363 24.427 28.403 24.747 27.0563L29.2403 9.01635C29.3203 8.68301 29.347 8.34968 29.3203 8.02968C29.2937 7.70968 29.227 7.38968 29.0937 7.10968ZM19.6003 22.3363H8.93366C8.38699 22.3363 7.93366 21.883 7.93366 21.3363C7.93366 20.7897 8.38699 20.3363 8.93366 20.3363H19.6003C20.147 20.3363 20.6003 20.7897 20.6003 21.3363C20.6003 21.883 20.147 22.3363 19.6003 22.3363ZM20.9337 17.003H10.267C9.72032 17.003 9.26699 16.5497 9.26699 16.003C9.26699 15.4563 9.72032 15.003 10.267 15.003H20.9337C21.4803 15.003 21.9337 15.4563 21.9337 16.003C21.9337 16.5497 21.4803 17.003 20.9337 17.003Z" fill="#1A434E"/>
</svg>
