<svg width="32" height="33" viewBox="0 0 32 33" fill="none" xmlns="http://www.w3.org/2000/svg">
<path d="M23.3734 11.1025C23.2801 11.0892 23.1867 11.0892 23.0934 11.1025C21.0267 11.0358 19.3867 9.34251 19.3867 7.26251C19.3867 5.14251 21.1067 3.40918 23.2401 3.40918C25.3601 3.40918 27.0934 5.12918 27.0934 7.26251C27.0801 9.34251 25.4401 11.0358 23.3734 11.1025Z" fill="white"/>
<path d="M27.72 20.3427C26.2266 21.3427 24.1333 21.7161 22.2 21.4627C22.7066 20.3694 22.9733 19.1561 22.9866 17.8761C22.9866 16.5427 22.6933 15.2761 22.1333 14.1694C24.1066 13.9027 26.2 14.2761 27.7066 15.2761C29.8133 16.6627 29.8133 18.9427 27.72 20.3427Z" fill="white"/>
<path d="M8.58655 11.1025C8.67988 11.0892 8.77322 11.0892 8.86655 11.1025C10.9332 11.0358 12.5732 9.34251 12.5732 7.26251C12.5732 5.12918 10.8532 3.40918 8.71988 3.40918C6.59988 3.40918 4.87988 5.12918 4.87988 7.26251C4.87988 9.34251 6.51988 11.0358 8.58655 11.1025Z" fill="white"/>
<path d="M8.73325 17.8753C8.73325 19.1687 9.01325 20.3953 9.51991 21.502C7.63991 21.702 5.67991 21.302 4.23991 20.3553C2.13325 18.9553 2.13325 16.6753 4.23991 15.2753C5.66658 14.3153 7.67991 13.9287 9.57325 14.142C9.02658 15.262 8.73325 16.5287 8.73325 17.8753Z" fill="white"/>
<path d="M16.1599 21.9022C16.0532 21.8889 15.9332 21.8889 15.8132 21.9022C13.3599 21.8222 11.3999 19.8089 11.3999 17.3289C11.4132 14.7955 13.4532 12.7422 15.9999 12.7422C18.5332 12.7422 20.5866 14.7955 20.5866 17.3289C20.5732 19.8089 18.6266 21.8222 16.1599 21.9022Z" fill="white"/>
<path d="M11.8267 24.6617C9.81332 26.0084 9.81332 28.2217 11.8267 29.5551C14.12 31.0884 17.88 31.0884 20.1733 29.5551C22.1867 28.2084 22.1867 25.9951 20.1733 24.6617C17.8933 23.1284 14.1333 23.1284 11.8267 24.6617Z" fill="white"/>
</svg>
