<svg width="32" height="32" viewBox="0 0 32 32" fill="none" xmlns="http://www.w3.org/2000/svg">
<path d="M21.6179 12.3008C19.1894 12.0831 16.6798 12.9042 14.8181 14.7659C13.4873 16.0967 12.6635 17.736 12.3902 19.4666H29.2812C29.0104 17.7458 28.212 16.092 26.886 14.7659C25.4158 13.2957 23.5391 12.4731 21.6179 12.3008Z" fill="white"/>
<path d="M29.2812 22.1333H12.4036C12.6892 23.8423 13.5093 25.5252 14.8181 26.8339C18.1505 30.1664 23.5536 30.1664 26.886 26.8339C28.212 25.5079 29.0104 23.854 29.2812 22.1333Z" fill="white"/>
<path d="M22.5478 4.70425C19.831 1.98742 15.4261 1.98742 12.7093 4.70425L9.67564 7.73789L13.931 11.9932C16.2356 10.1783 19.0898 9.39684 21.8561 9.64487C22.7515 9.72515 23.6402 9.91337 24.5003 10.2092C24.6908 8.24573 24.0627 6.21913 22.5478 4.70425Z" fill="white"/>
<path d="M12.0433 13.8768C10.2491 16.1364 9.40801 18.937 9.66896 21.7672C9.75125 22.6597 9.94467 23.5534 10.246 24.4209C8.29415 24.625 6.27667 24.016 4.75637 22.4957C2.03954 19.7788 2.03954 15.374 4.75637 12.6572L7.79002 9.6235L12.0433 13.8768Z" fill="white"/>
</svg>
