<svg width="32" height="32" viewBox="0 0 32 32" fill="none" xmlns="http://www.w3.org/2000/svg">
<path d="M21.6179 12.301C19.1894 12.0832 16.6798 12.9043 14.8181 14.7661C13.4873 16.0968 12.6635 17.7362 12.3902 19.4667H29.2812C29.0104 17.7459 28.212 16.0921 26.886 14.7661C25.4158 13.2958 23.5391 12.4732 21.6179 12.301Z" fill="#1A434E"/>
<path d="M29.2812 22.1334H12.4036C12.6892 23.8424 13.5093 25.5253 14.8181 26.834C18.1505 30.1665 23.5536 30.1665 26.886 26.834C28.212 25.508 29.0104 23.8542 29.2812 22.1334Z" fill="#1A434E"/>
<path d="M22.5478 4.70437C19.831 1.98754 15.4261 1.98754 12.7093 4.70437L9.67564 7.73801L13.931 11.9933C16.2356 10.1784 19.0898 9.39696 21.8561 9.64499C22.7515 9.72527 23.6402 9.91349 24.5003 10.2093C24.6908 8.24585 24.0627 6.21925 22.5478 4.70437Z" fill="#1A434E"/>
<path d="M12.0433 13.8769C10.2491 16.1365 9.40801 18.9371 9.66896 21.7673C9.75125 22.6599 9.94467 23.5535 10.246 24.421C8.29415 24.6251 6.27667 24.0161 4.75637 22.4958C2.03954 19.779 2.03954 15.3741 4.75637 12.6573L7.79002 9.62363L12.0433 13.8769Z" fill="#1A434E"/>
</svg>
