<svg width="32" height="32" viewBox="0 0 32 32" fill="none" xmlns="http://www.w3.org/2000/svg">
<path d="M12.0003 2.66675C8.50699 2.66675 5.66699 5.50675 5.66699 9.00008C5.66699 12.4267 8.34699 15.2001 11.8403 15.3201C11.947 15.3067 12.0537 15.3067 12.1337 15.3201C12.1603 15.3201 12.1737 15.3201 12.2003 15.3201C12.2137 15.3201 12.2137 15.3201 12.227 15.3201C15.6403 15.2001 18.3203 12.4267 18.3337 9.00008C18.3337 5.50675 15.4937 2.66675 12.0003 2.66675Z" fill="#1A434E"/>
<path d="M18.7733 18.8666C15.0533 16.3866 8.98661 16.3866 5.23995 18.8666C3.54661 19.9999 2.61328 21.5333 2.61328 23.1733C2.61328 24.8133 3.54661 26.3333 5.22661 27.4533C7.09328 28.7066 9.54661 29.3333 11.9999 29.3333C14.4533 29.3333 16.9066 28.7066 18.7733 27.4533C20.4533 26.3199 21.3866 24.7999 21.3866 23.1466C21.3733 21.5066 20.4533 19.9866 18.7733 18.8666Z" fill="#1A434E"/>
<path d="M26.6535 9.78688C26.8668 12.3735 25.0268 14.6402 22.4801 14.9469C22.4668 14.9469 22.4668 14.9469 22.4535 14.9469H22.4135C22.3335 14.9469 22.2535 14.9469 22.1868 14.9735C20.8935 15.0402 19.7068 14.6269 18.8135 13.8669C20.1868 12.6402 20.9735 10.8002 20.8135 8.80021C20.7201 7.72021 20.3468 6.73355 19.7868 5.89355C20.2935 5.64021 20.8801 5.48021 21.4801 5.42688C24.0935 5.20021 26.4268 7.14688 26.6535 9.78688Z" fill="#1A434E"/>
<path d="M29.32 22.1199C29.2133 23.4132 28.3867 24.5332 27 25.2932C25.6667 26.0265 23.9867 26.3732 22.32 26.3332C23.28 25.4665 23.84 24.3865 23.9467 23.2399C24.08 21.5865 23.2933 19.9999 21.72 18.7332C20.8267 18.0265 19.7867 17.4665 18.6533 17.0532C21.6 16.1999 25.3067 16.7732 27.5867 18.6132C28.8133 19.5999 29.44 20.8399 29.32 22.1199Z" fill="#1A434E"/>
</svg>
