<svg width="32" height="32" viewBox="0 0 32 32" fill="none" xmlns="http://www.w3.org/2000/svg">
<path d="M21.5867 2.6665H10.4134C5.56008 2.6665 2.66675 5.55984 2.66675 10.4132V21.5865C2.66675 26.4398 5.56008 29.3332 10.4134 29.3332H21.5867C26.4401 29.3332 29.3334 26.4398 29.3334 21.5865V10.4132C29.3334 5.55984 26.4401 2.6665 21.5867 2.6665ZM13.2934 19.8665L10.2934 22.8665C10.0934 23.0665 9.84008 23.1598 9.58675 23.1598C9.33341 23.1598 9.06675 23.0665 8.88008 22.8665L7.88008 21.8665C7.48008 21.4798 7.48008 20.8398 7.88008 20.4532C8.26675 20.0665 8.89341 20.0665 9.29341 20.4532L9.58675 20.7465L11.8801 18.4532C12.2667 18.0665 12.8934 18.0665 13.2934 18.4532C13.6801 18.8398 13.6801 19.4798 13.2934 19.8665ZM13.2934 10.5332L10.2934 13.5332C10.0934 13.7332 9.84008 13.8265 9.58675 13.8265C9.33341 13.8265 9.06675 13.7332 8.88008 13.5332L7.88008 12.5332C7.48008 12.1465 7.48008 11.5065 7.88008 11.1198C8.26675 10.7332 8.89341 10.7332 9.29341 11.1198L9.58675 11.4132L11.8801 9.11984C12.2667 8.73317 12.8934 8.73317 13.2934 9.11984C13.6801 9.5065 13.6801 10.1465 13.2934 10.5332ZM23.4134 22.1598H16.4134C15.8667 22.1598 15.4134 21.7065 15.4134 21.1598C15.4134 20.6132 15.8667 20.1598 16.4134 20.1598H23.4134C23.9734 20.1598 24.4134 20.6132 24.4134 21.1598C24.4134 21.7065 23.9734 22.1598 23.4134 22.1598ZM23.4134 12.8265H16.4134C15.8667 12.8265 15.4134 12.3732 15.4134 11.8265C15.4134 11.2798 15.8667 10.8265 16.4134 10.8265H23.4134C23.9734 10.8265 24.4134 11.2798 24.4134 11.8265C24.4134 12.3732 23.9734 12.8265 23.4134 12.8265Z" fill="white"/>
</svg>
